<svg width="153" height="152" viewBox="0 0 153 152" fill="none" xmlns="http://www.w3.org/2000/svg">
<path d="M0 78C15 77.8333 47.7 74.9 58.5 64.5C63.046 61.3648 71.7794 46.3459 72.4688 10.9562C72.4143 8.44499 72.4299 6.10408 72.5 4C72.5238 6.40152 72.5123 8.71953 72.4688 10.9562C72.9318 32.3146 78.4566 65.9891 98.5 71C105.78 73.2156 124.3 77.535 142.589 77.9653C143.599 77.9654 144.571 77.9773 145.5 78C144.531 78 143.56 77.9881 142.589 77.9653C121.292 77.963 83.055 83.2328 80 105C77.5 114.667 72.5 137.5 72.5 151.5C72.1667 135.667 68.9 101.4 58.5 91C48.1 80.6 15.1667 78 0 78Z" fill="url(#paint0_linear_5_8)"/>
<path d="M95 29.6C100.979 29.5333 114.014 28.36 118.32 24.2C120.132 22.9459 123.613 16.9384 123.888 2.78248C123.866 1.77801 123.872 0.841632 123.9 0C123.91 0.960611 123.905 1.88782 123.888 2.78248C124.072 11.3259 126.275 24.7957 134.265 26.8C137.167 27.6862 144.549 29.414 151.839 29.5861C152.242 29.5862 152.63 29.5909 153 29.6C152.614 29.6 152.227 29.5952 151.839 29.5861C143.35 29.5852 128.108 31.6931 126.89 40.4C125.893 44.2667 123.9 53.4 123.9 59C123.767 52.6667 122.465 38.96 118.32 34.8C114.174 30.64 101.046 29.6 95 29.6Z" fill="#FF8904" fill-opacity="0.72"/>
<defs>
<linearGradient id="paint0_linear_5_8" x1="107.784" y1="41.5983" x2="31.9103" y2="153.684" gradientUnits="userSpaceOnUse">
<stop stop-color="#F0F9FF"/>
<stop offset="0.326923" stop-color="#615FFF" stop-opacity="0.8"/>
<stop offset="0.725962" stop-color="#7F22FE"/>
</linearGradient>
</defs>
</svg>
